#!OML:ASF C:\Vicon Data\Big\jianyuan-13\jianyuan\Session 1\Capture.male.ASF
:FULLY-SPECIFIED
:DEGREES
42
root -8.044070 17.376962 -21.738827 9.867119 6.710392 0.915916
lowerback -8.654773 -0.327989 -1.564541 
upperback -0.460658 -0.350721 0.405762 
thorax 4.388328 -0.229422 1.256803 
lowerneck -6.143190 -2.989356 3.148798 
upperneck 3.458227 -4.097553 -3.340471 
head 2.014312 -2.094903 -1.752863 
rclavicle 0.000000 0.000000 
rhumerus -41.964052 -22.207816 -77.036729 
rradius 28.120541 
rwrist 31.091727 
rhand -18.596160 -15.714898 
rfingers 0.000000 
rthumb 7.694952 -45.554903 
lclavicle 0.000000 0.000000 
lhumerus -25.401997 19.867379 86.214622 
lradius 30.528284 
lwrist -46.359277 
lhand -25.490374 -0.453895 
lfingers 0.000000 
lthumb 1.037932 29.523289 
rfemur -23.185129 5.810342 20.898844 
rtibia 24.835546 
rfoot -12.784257 -0.950725 
rtoes -22.546935 
lfemur -21.902487 -6.208363 -19.169997 
ltibia 45.323410 
lfoot -12.937736 2.621372 
ltoes -29.812905 
43
root -8.048594 17.377994 -21.694451 9.903749 6.692338 0.930682
lowerback -8.679369 -0.277176 -1.573033 
upperback -0.484615 -0.281966 0.378149 
thorax 4.374724 -0.195553 1.241315 
lowerneck -6.224978 -2.986081 3.226409 
upperneck 3.575027 -4.098960 -3.340997 
head 2.066236 -2.094483 -1.771599 
rclavicle 0.000000 0.000000 
rhumerus -41.873447 -22.226843 -77.133540 
rradius 28.229660 
rwrist 31.021453 
rhand -18.612079 -15.654220 
rfingers 0.000000 
rthumb 7.679598 -45.494797 
lclavicle 0.000000 0.000000 
lhumerus -25.727409 19.946399 86.017617 
lradius 30.486545 
lwrist -46.572511 
lhand -25.255677 -0.474660 
lfingers 0.000000 
lthumb 1.264599 29.501288 
rfemur -23.040914 5.721714 20.947297 
rtibia 24.827952 
rfoot -12.874184 -0.849922 
rtoes -22.969323 
lfemur -22.236264 -6.156467 -19.185940 
ltibia 45.388564 
lfoot -13.211787 2.810277 
ltoes -29.918968 
44
root -8.052115 17.377641 -21.652522 9.978913 6.714703 0.914061
lowerback -8.719345 -0.243614 -1.532915 
upperback -0.522642 -0.242425 0.369949 
thorax 4.355937 -0.175556 1.214988 
lowerneck -6.251207 -2.980190 3.301203 
upperneck 3.616843 -4.094703 -3.397587 
head 2.082840 -2.092965 -1.804712 
rclavicle 0.000000 0.000000 
rhumerus -41.769092 -22.079608 -77.273712 
rradius 28.362553 
rwrist 30.999275 
rhand -18.567685 -15.744775 
rfingers 0.000000 
rthumb 7.722448 -45.583759 
lclavicle 0.000000 0.000000 
lhumerus -26.055180 20.062683 85.850467 
lradius 30.443694 
lwrist -46.741920 
lhand -25.013714 -0.456947 
lfingers 0.000000 
lthumb 1.498323 29.517544 
rfemur -22.949272 5.618097 21.023064 
rtibia 24.811256 
rfoot -12.879899 -0.747731 
rtoes -23.543604 
lfemur -22.640492 -6.130018 -19.158424 
ltibia 45.419462 
lfoot -13.469543 3.015165 
ltoes -29.719865 
45
root -8.057813 17.379137 -21.609515 10.038722 6.704648 0.917209
lowerback -8.746852 -0.203300 -1.547649 
upperback -0.558985 -0.189157 0.374675 
thorax 4.331793 -0.149872 1.234699 
lowerneck -6.188791 -3.043646 3.246701 
upperneck 3.573689 -4.172750 -3.442726 
head 2.054490 -2.133992 -1.809500 
rclavicle 0.000000 0.000000 
rhumerus -41.675381 -21.896675 -77.384196 
rradius 28.474534 
rwrist 31.024554 
rhand -18.672421 -15.830217 
rfingers 0.000000 
rthumb 7.621389 -45.672824 
lclavicle 0.000000 0.000000 
lhumerus -26.378836 20.377677 85.656115 
lradius 30.345652 
lwrist -47.147081 
lhand -24.823379 -0.483162 
lfingers 0.000000 
lthumb 1.682193 29.489903 
rfemur -22.837449 5.608340 21.068738 
rtibia 24.793616 
rfoot -13.040546 -0.751353 
rtoes -23.510136 
lfemur -23.019430 -5.960110 -19.157951 
ltibia 45.419226 
lfoot -13.642869 3.226337 
ltoes -30.439784 
46
root -8.064829 17.381197 -21.565370 10.018643 6.655783 0.908442
lowerback -8.709340 -0.148118 -1.549587 
upperback -0.572329 -0.115446 0.352278 
thorax 4.294403 -0.112924 1.221596 
lowerneck -6.219601 -3.056856 3.180020 
upperneck 3.666122 -4.188803 -3.323862 
head 2.092956 -2.139117 -1.762572 
rclavicle 0.000000 0.000000 
rhumerus -41.577878 -21.620103 -77.598874 
rradius 28.684176 
rwrist 30.521422 
rhand -18.671155 -15.821586 
rfingers 0.000000 
rthumb 7.622570 -45.664235 
lclavicle 0.000000 0.000000 
lhumerus -26.747974 20.537649 85.390456 
lradius 30.301490 
lwrist -47.445058 
lhand -24.539329 -0.560571 
lfingers 0.000000 
lthumb 1.956493 29.410116 
rfemur -22.641945 5.545965 21.159336 
rtibia 24.793175 
rfoot -13.245992 -0.674763 
rtoes -23.423744 
lfemur -23.270651 -5.801619 -19.131486 
ltibia 45.381897 
lfoot -13.907298 3.248219 
ltoes -29.526125 
47
root -8.073127 17.383114 -21.520924 10.011140 6.639484 0.888406
lowerback -8.678888 -0.109507 -1.573671 
upperback -0.577379 -0.062192 0.352923 
thorax 4.270338 -0.086753 1.242347 
lowerneck -6.286186 -3.051170 3.144659 
upperneck 3.751901 -4.181574 -3.248882 
head 2.135453 -2.133790 -1.735553 
rclavicle 0.000000 0.000000 
rhumerus -41.423273 -21.445219 -77.791238 
rradius 28.840817 
rwrist 30.118328 
rhand -18.676687 -15.811114 
rfingers 0.000000 
rthumb 7.617198 -45.653968 
lclavicle 0.000000 0.000000 
lhumerus -27.102476 20.681083 85.158082 
lradius 30.271198 
lwrist -47.677418 
lhand -24.270170 -0.671605 
lfingers 0.000000 
lthumb 2.216437 29.296582 
rfemur -22.466117 5.491482 21.261933 
rtibia 24.799826 
rfoot -13.430214 -0.617493 
rtoes -23.417816 
lfemur -23.558599 -5.755111 -19.073107 
ltibia 45.313439 
lfoot -14.156777 3.348571 
ltoes -28.529103 
48
root -8.080620 17.383976 -21.476434 10.035453 6.628857 0.884784
lowerback -8.678759 -0.066744 -1.617405 
upperback -0.584456 -0.001450 0.354792 
thorax 4.260862 -0.057521 1.276323 
lowerneck -6.342063 -3.074640 3.209971 
upperneck 3.784704 -4.217670 -3.283793 
head 2.153442 -2.152038 -1.761896 
rclavicle 0.000000 0.000000 
rhumerus -41.262720 -21.363635 -77.928429 
rradius 28.966492 
rwrist 29.940827 
rhand -18.702476 -15.843358 
rfingers 0.000000 
rthumb 7.592308 -45.687070 
lclavicle 0.000000 0.000000 
lhumerus -27.433880 20.793077 84.966962 
lradius 30.229438 
lwrist -47.825578 
lhand -24.046704 -0.714392 
lfingers 0.000000 
lthumb 2.432255 29.251474 
rfemur -22.329355 5.441541 21.334700 
rtibia 24.812872 
rfoot -13.585956 -0.552046 
rtoes -23.483307 
lfemur -23.889695 -5.806432 -19.036321 
ltibia 45.214587 
lfoot -14.394490 3.554672 
ltoes -27.984753 
49
root -8.085492 17.383379 -21.432390 10.097784 6.613329 0.910445
lowerback -8.716536 -0.010751 -1.649090 
upperback -0.602913 0.076571 0.330501 
thorax 4.260114 -0.019650 1.278482 
lowerneck -6.375219 -3.141528 3.390709 
upperneck 3.779641 -4.317551 -3.406515 
head 2.149021 -2.202938 -1.837723 
rclavicle 0.000000 0.000000 
rhumerus -41.143850 -21.317086 -78.025544 
rradius 29.097313 
rwrist 29.976148 
rhand -18.759372 -15.924649 
rfingers 0.000000 
rthumb 7.537431 -45.770298 
lclavicle 0.000000 0.000000 
lhumerus -27.766310 20.799520 84.797951 
lradius 30.196211 
lwrist -47.828869 
lhand -23.857231 -0.622609 
lfingers 0.000000 
lthumb 2.615214 29.341048 
rfemur -22.238749 5.372747 21.361203 
rtibia 24.834275 
rfoot -13.700451 -0.452914 
rtoes -23.640309 
lfemur -24.252713 -5.916312 -19.050494 
ltibia 45.087275 
lfoot -14.651408 3.831627 
ltoes -28.062789 
50
root -8.088705 17.382645 -21.390180 10.209526 6.705130 0.909612
lowerback -8.780151 -0.007200 -1.578795 
upperback -0.637093 0.074972 0.289124 
thorax 4.260318 -0.019455 1.195799 
lowerneck -6.492506 -3.140003 3.524512 
upperneck 3.886783 -4.327420 -3.417860 
head 2.203044 -2.206192 -1.871317 
rclavicle 0.000000 0.000000 
rhumerus -41.014092 -21.254695 -78.184907 
rradius 29.188739 
rwrist 30.104682 
rhand -18.908622 -15.966080 
rfingers 0.000000 
rthumb 7.393400 -45.816868 
lclavicle 0.000000 0.000000 
lhumerus -28.188614 20.529239 84.617383 
lradius 30.329965 
lwrist -47.508675 
lhand -23.607584 -0.512797 
lfingers 0.000000 
lthumb 2.856306 29.447807 
rfemur -22.217870 5.240975 21.417477 
rtibia 24.871628 
rfoot -13.702571 -0.384948 
rtoes -24.113424 
lfemur -24.687740 -6.081955 -19.017789 
ltibia 44.927423 
lfoot -14.973886 4.121914 
ltoes -28.301671 
51
root -8.094268 17.382140 -21.346660 10.277205 6.744581 0.885059
lowerback -8.812587 0.016928 -1.561762 
upperback -0.663952 0.105019 0.271245 
thorax 4.249581 -0.004504 1.171342 
lowerneck -6.490815 -3.128241 3.601530 
upperneck 3.890548 -4.316826 -3.441574 
head 2.202673 -2.200310 -1.892382 
rclavicle 0.000000 0.000000 
rhumerus -40.872795 -21.065667 -78.410808 
rradius 29.388657 
rwrist 29.712209 
rhand -18.853374 -15.903124 
rfingers 0.000000 
rthumb 7.446665 -45.752078 
lclavicle 0.000000 0.000000 
lhumerus -28.572116 20.666369 84.327400 
lradius 30.276458 
lwrist -47.578903 
lhand -23.411077 -0.582264 
lfingers 0.000000 
lthumb 3.046083 29.375714 
rfemur -22.142614 5.207383 21.503166 
rtibia 24.898128 
rfoot -13.780136 -0.379643 
rtoes -24.448187 
lfemur -25.072016 -6.088296 -18.952701 
ltibia 44.741897 
lfoot -15.214921 4.187956 
ltoes -27.614216 
52
root -8.101111 17.382700 -21.304141 10.294856 6.746486 0.900334
lowerback -8.771383 0.025964 -1.602488 
upperback -0.675268 0.120207 0.269943 
thorax 4.214164 0.002623 1.194622 
lowerneck -6.487184 -3.142289 3.472525 
upperneck 3.882291 -4.327371 -3.388269 
head 2.201992 -2.206083 -1.852236 
rclavicle 0.000000 0.000000 
rhumerus -40.692397 -20.867279 -78.591536 
rradius 29.566297 
rwrist 29.388839 
rhand -18.712326 -15.922485 
rfingers 0.000000 
rthumb 7.582793 -45.766582 
lclavicle 0.000000 0.000000 
lhumerus -28.907661 21.068707 83.998852 
lradius 30.090812 
lwrist -47.817393 
lhand -23.324028 -0.747456 
lfingers 0.000000 
lthumb 3.130167 29.209312 
rfemur -21.999035 5.216872 21.546120 
rtibia 24.913555 
rfoot -13.881219 -0.365738 
rtoes -24.347678 
lfemur -25.379017 -6.094649 -18.925853 
ltibia 44.515558 
lfoot -15.413989 4.220694 
ltoes -27.052698 
53
root -8.107002 17.383200 -21.261691 10.283914 6.745009 0.875648
lowerback -8.714087 0.053836 -1.583308 
upperback -0.670276 0.155494 0.266167 
thorax 4.186264 0.021033 1.184033 
lowerneck -6.537699 -3.145431 3.344537 
upperneck 3.929675 -4.325337 -3.305102 
head 2.230663 -2.204661 -1.805007 
rclavicle 0.000000 0.000000 
rhumerus -40.518207 -20.752788 -78.741808 
rradius 29.726096 
rwrist 29.204862 
rhand -18.638350 -15.987204 
rfingers 0.000000 
rthumb 7.654202 -45.828706 
lclavicle 0.000000 0.000000 
lhumerus -29.205033 21.472450 83.670935 
lradius 29.857150 
lwrist -48.094858 
lhand -23.267005 -0.809944 
lfingers 0.000000 
lthumb 3.185248 29.146010 
rfemur -21.823108 5.203047 21.635441 
rtibia 24.919139 
rfoot -13.997379 -0.326179 
rtoes -24.177394 
lfemur -25.648483 -6.102962 -18.863697 
ltibia 44.263073 
lfoot -15.635561 4.352415 
ltoes -26.987237 
